# xmcd CD database file
#
# Track frame offsets:
#	150
#	21082
#	48592
#
# Disc length: 924 seconds
#
# Revision: 0
# Processed by: cddbd v1.5.1PL2 Copyright (c) Steve Scherf et al.
# Submitted via: CDex 1.50
#
DISCID=1e039a03
DTITLE=September - A moment to remember
DYEAR=2005
DGENRE=JPop
TTITLE0=A moment to remember
TTITLE1=時の綺羅
TTITLE2=A moment to remember(オリジナルカラオケ)
EXTD=YEAR: 2005
EXTT0=
EXTT1=
EXTT2=
PLAYORDER=
